<svg width="85" height="85" viewBox="0 0 85 85" fill="none" xmlns="http://www.w3.org/2000/svg">
<rect width="84.0814" height="84.0814" rx="42.0407" fill="#121030"/>
<path d="M41.5406 34.5677C44.7972 34.5677 47.4371 31.7635 47.4371 28.3044C47.4371 24.8452 44.7972 22.041 41.5406 22.041C38.284 22.041 35.644 24.8452 35.644 28.3044C35.644 31.7635 38.284 34.5677 41.5406 34.5677Z" fill="white"/>
<path d="M58.5753 44.3095H55.5877L50.4053 38.248C49.9747 37.7466 49.4506 37.346 48.8663 37.0716C48.282 36.7972 47.6503 36.6551 47.0115 36.6543H36.0701C35.4312 36.6551 34.7995 36.7972 34.2152 37.0716C33.6309 37.346 33.1068 37.7466 32.6763 38.248L27.4939 44.3095H24.5063C23.985 44.3095 23.4851 44.5295 23.1165 44.921C22.7479 45.3125 22.5408 45.8436 22.5408 46.3973C22.5408 46.951 22.7479 47.482 23.1165 47.8736C23.4851 48.2651 23.985 48.4851 24.5063 48.4851H29.7477C29.9007 48.4851 30.049 48.4285 30.167 48.325L34.229 44.727L34.7335 51.3871L27.0287 50.7329C26.3031 50.6699 25.5809 50.8916 24.9987 51.356C24.4166 51.8204 24.0149 52.4954 23.8696 53.2532C23.7244 54.011 23.8456 54.799 24.2104 55.4683C24.5753 56.1375 25.1583 56.6415 25.8494 56.8849L34.3994 59.9122L40.0797 61.9234C40.5762 62.0983 41.1153 62.0779 41.5988 61.8658C42.0823 61.6537 42.4779 61.2642 42.7135 60.7682C42.7864 60.6158 42.8414 60.4545 42.8773 60.288C43.003 59.7563 42.9461 59.1944 42.7167 58.7033C42.4873 58.2121 42.1006 57.824 41.6259 57.6087L35.3625 54.7554L35.8735 53.4749L42.0322 56.2794L42.0256 56.2516L48.5511 54.0873L48.9442 55.4095L43.3556 57.2677C43.6555 57.6131 43.8892 58.0173 44.0435 58.4577C44.205 58.9321 44.2741 59.4364 44.2466 59.94L57.0356 56.7109C57.7363 56.5322 58.3478 56.0796 58.7482 55.4433C59.1487 54.807 59.3086 54.0337 59.1962 53.2777C59.0838 52.5217 58.7072 51.8384 58.1416 51.3642C57.576 50.89 56.863 50.6596 56.1446 50.719L48.348 51.3871L48.8525 44.727L52.9146 48.325C53.0326 48.4285 53.1808 48.4851 53.3339 48.4851H58.5753C59.0965 48.4851 59.5965 48.2651 59.9651 47.8736C60.3337 47.482 60.5408 46.951 60.5408 46.3973C60.5408 45.8436 60.3337 45.3125 59.9651 44.921C59.5965 44.5295 59.0965 44.3095 58.5753 44.3095Z" fill="white"/>
</svg>
