<svg width="85" height="85" viewBox="0 0 85 85" fill="none" xmlns="http://www.w3.org/2000/svg">
<g clip-path="url(#clip0_2_9638)">
<path d="M42.0046 84.0814C65.223 84.0814 84.0453 65.2591 84.0453 42.0407C84.0453 18.8223 65.223 0 42.0046 0C18.7861 0 -0.0361328 18.8223 -0.0361328 42.0407C-0.0361328 65.2591 18.7861 84.0814 42.0046 84.0814Z" fill="#121030"/>
<path d="M52.7485 70.4673L42.0047 65.329L31.261 70.4673V48.7129H52.7485V70.4673Z" fill="#FEFEFE"/>
<path d="M42.0047 55.253C52.9136 55.253 61.7571 46.4095 61.7571 35.5005C61.7571 24.5915 52.9136 15.748 42.0047 15.748C31.0957 15.748 22.2522 24.5915 22.2522 35.5005C22.2522 46.4095 31.0957 55.253 42.0047 55.253Z" fill="#FEFEFE"/>
<path d="M42.0044 50.8487C50.481 50.8487 57.3526 43.9771 57.3526 35.5005C57.3526 27.024 50.481 20.1523 42.0044 20.1523C33.5279 20.1523 26.6562 27.024 26.6562 35.5005C26.6562 43.9771 33.5279 50.8487 42.0044 50.8487Z" fill="#121030"/>
</g>
<defs>
<clipPath id="clip0_2_9638">
<rect width="84.0814" height="84.0814" fill="white"/>
</clipPath>
</defs>
</svg>
