<svg width="85" height="85" viewBox="0 0 85 85" fill="none" xmlns="http://www.w3.org/2000/svg">
<g clip-path="url(#clip0_2_9621)">
<path d="M42.0407 84.0814C65.2591 84.0814 84.0814 65.2591 84.0814 42.0407C84.0814 18.8223 65.2591 0 42.0407 0C18.8223 0 0 18.8223 0 42.0407C0 65.2591 18.8223 84.0814 42.0407 84.0814Z" fill="#121030"/>
<path d="M42.2736 84.0794C62.8871 83.9673 79.9878 69.0215 83.4432 49.3722L60.7253 26.6543L47.6438 41.5106L23.5916 65.3974L42.2736 84.0794Z" fill="#121030"/>
<path d="M52.7565 18.6855H23.5916V65.3974H60.7253V26.6542L52.7565 18.6855Z" fill="white"/>
<path d="M60.7253 26.6542L52.7564 18.6855H38.9736V65.3974H60.7253V26.6542Z" fill="#E6F3FF"/>
<path d="M52.7566 26.6546L60.7254 26.6542L52.7566 18.6855V26.6546Z" fill="#CFDBE6"/>
<path d="M38.9264 41.5554C42.3638 41.5554 45.1504 38.7688 45.1504 35.3314C45.1504 31.894 42.3638 29.1074 38.9264 29.1074C35.489 29.1074 32.7024 31.894 32.7024 35.3314C32.7024 38.7688 35.489 41.5554 38.9264 41.5554Z" fill="#9F9AC8"/>
<path d="M45.1503 35.3303C45.1503 31.9087 42.3893 29.1332 38.9736 29.1074V41.5529C42.3893 41.5273 45.1503 38.7515 45.1503 35.3303Z" fill="#9F9AC8"/>
<path d="M26.0894 54.9757C26.0894 47.8859 31.8366 42.1387 38.9264 42.1387C46.0162 42.1387 51.7634 47.8859 51.7634 54.9757H26.0894Z" fill="#324A5E"/>
<path d="M38.9736 42.1387V54.9742H51.7634C51.7634 47.9007 46.0412 42.1641 38.9736 42.1387Z" fill="#2B3B4E"/>
<path d="M40.0937 59.7859L38.292 57.9842L48.622 47.6539L54.8028 53.8345L66.4862 39.2305L68.4754 40.8223L55.014 57.6494L48.622 51.2574L40.0937 59.7859Z" fill="#C1321F"/>
<path d="M67.1541 44.995L66.5684 41.2963L62.9458 41.674L62.6814 39.1399L68.7072 38.5117L69.6708 44.5965L67.1541 44.995Z" fill="#C1321F"/>
</g>
<defs>
<clipPath id="clip0_2_9621">
<rect width="84.0814" height="84.0814" fill="white"/>
</clipPath>
</defs>
</svg>
