<svg width="40" height="40" viewBox="0 0 40 40" fill="none" xmlns="http://www.w3.org/2000/svg">
<rect width="40" height="40" rx="4" fill="#1AA972"/>
<mask id="mask0_2_11095" style="mask-type:alpha" maskUnits="userSpaceOnUse" x="8" y="8" width="24" height="24">
<rect x="8" y="8" width="24" height="24" fill="#D9D9D9"/>
</mask>
<g mask="url(#mask0_2_11095)">
<path d="M20 24.6C21.3636 24.6 22.5227 24.1042 23.4773 23.1125C24.4318 22.1208 24.9091 20.9167 24.9091 19.5C24.9091 18.0833 24.4318 16.8792 23.4773 15.8875C22.5227 14.8958 21.3636 14.4 20 14.4C18.6364 14.4 17.4773 14.8958 16.5227 15.8875C15.5682 16.8792 15.0909 18.0833 15.0909 19.5C15.0909 20.9167 15.5682 22.1208 16.5227 23.1125C17.4773 24.1042 18.6364 24.6 20 24.6ZM20 22.56C19.1818 22.56 18.4864 22.2625 17.9136 21.6675C17.3409 21.0725 17.0545 20.35 17.0545 19.5C17.0545 18.65 17.3409 17.9275 17.9136 17.3325C18.4864 16.7375 19.1818 16.44 20 16.44C20.8182 16.44 21.5136 16.7375 22.0864 17.3325C22.6591 17.9275 22.9455 18.65 22.9455 19.5C22.9455 20.35 22.6591 21.0725 22.0864 21.6675C21.5136 22.2625 20.8182 22.56 20 22.56ZM20 28C17.3455 28 14.9273 27.2303 12.7455 25.6908C10.5636 24.1514 8.98182 22.0878 8 19.5C8.98182 16.9122 10.5636 14.8486 12.7455 13.3092C14.9273 11.7697 17.3455 11 20 11C22.6545 11 25.0727 11.7697 27.2545 13.3092C29.4364 14.8486 31.0182 16.9122 32 19.5C31.0182 22.0878 29.4364 24.1514 27.2545 25.6908C25.0727 27.2303 22.6545 28 20 28ZM20 25.7333C22.0545 25.7333 23.9409 25.1714 25.6591 24.0475C27.3773 22.9236 28.6909 21.4078 29.6 19.5C28.6909 17.5922 27.3773 16.0764 25.6591 14.9525C23.9409 13.8286 22.0545 13.2667 20 13.2667C17.9455 13.2667 16.0591 13.8286 14.3409 14.9525C12.6227 16.0764 11.3091 17.5922 10.4 19.5C11.3091 21.4078 12.6227 22.9236 14.3409 24.0475C16.0591 25.1714 17.9455 25.7333 20 25.7333Z" fill="#FEFEFE"/>
</g>
</svg>
